<?xml version="1.0" encoding="UTF-8"?>
<svg xmlns="http://www.w3.org/2000/svg" xmlns:xlink="http://www.w3.org/1999/xlink" id="Layer_1" data-name="Layer 1" viewBox="0 0 120 120">
  <defs>
    <style>
      .cls-1 {
        fill: none;
      }

      .cls-2 {
        clip-path: url(#clippath);
      }

      .cls-3 {
        fill: url(#linear-gradient);
      }

      .cls-3, .cls-4 {
        fill-rule: evenodd;
      }

      .cls-4 {
        fill: url(#linear-gradient-2);
      }
    </style>
    <clipPath id="clippath">
      <rect class="cls-1" x="1.11" y="1.11" width="117.78" height="117.78"></rect>
    </clipPath>
    <linearGradient id="linear-gradient" x1="60.01" y1="2.27" x2="60.01" y2="120.01" gradientTransform="translate(0 122) scale(1 -1)" gradientUnits="userSpaceOnUse">
      <stop offset="0" stop-color="#f0b118"></stop>
      <stop offset="1" stop-color="#e62b19"></stop>
    </linearGradient>
    <linearGradient id="linear-gradient-2" x1="46.9" y1="121.69" x2="46.9" y2="6.42" gradientTransform="translate(0 122) scale(1 -1)" gradientUnits="userSpaceOnUse">
      <stop offset="0" stop-color="#f0b118"></stop>
      <stop offset="1" stop-color="#ef6a14"></stop>
    </linearGradient>
  </defs>
  <g class="cls-2">
    <g>
      <path class="cls-3" d="m6.52,36.56c.13-1.48.47-2.9,1.01-4.23,1.18-2.87,3.3-5.32,6.11-6.92L52.85,3.05c2.22-1.26,4.7-1.9,7.17-1.9s4.95.64,7.17,1.9l39.2,22.36c4.43,2.53,7.17,7.2,7.17,12.26v44.71c0,.58-.04,1.16-.11,1.73-.26,1.99-.92,3.87-1.93,5.53-1.23,2.04-2.98,3.77-5.13,4.99l-29.91,17.06-9.31,5.29-.39.19c-1.53.83-3.16,1.36-4.82,1.59-.61.08-1.22.13-1.84.13h-.22c-2.43-.02-4.87-.65-7.05-1.9l-15.58-8.88-23.65-13.62-.19-.19c-4.25-2.5-6.96-7.11-6.96-11.91v-44.98c0-.28.02-.57.04-.85Zm15.62,41.02v-11.72c0-1.15.58-1.54,1.55-.77l17.01,9.8c.97.58,1.74,1.92,1.74,2.88v11.72c0,1.15-.58,1.54-1.55.96l-17.01-9.99c-.97-.58-1.74-1.92-1.74-2.88Zm74.22-12.68c.97-.58,1.74,0,1.74.96h-.19v11.53c0,1.15-.77,2.31-1.74,2.88l-17.01,9.99c-.77.58-1.55,0-1.55-.96v-11.72c0-1.15.77-2.31,1.74-2.88l17.01-9.8Zm.39-25.56c.77-.58,1.55,0,1.55.96v15.18c0,1.15-.77,2.31-1.74,2.88l-34.6,20.18c-.97.58-2.32.58-3.29,0l-34.79-20.18c-.97-.58-1.74-1.92-1.74-2.88v-15.18c0-1.15.77-1.54,1.74-.96l34.79,20.18c.97.58,2.32.58,3.29,0l34.79-20.18Z"></path>
      <path class="cls-4" d="m53.46,2.61c-.25.13-.49.27-.72.42l-16.47,9.36-22.76,12.97c-1.25.72-2.37,1.6-3.33,2.62-2.26,2.43-3.64,5.59-3.82,9.03,0,.11,0,.22-.01.32v45.05c0,4.8,2.71,9.42,6.96,11.91l.19.19,14.29,8.23,9.49,5.41,14.46,8.24c-6.69-8.07-11.17-17.45-13.29-27.27l-14.7-8.64c-.97-.58-1.74-1.92-1.74-2.88v-11.72c0-1.15.58-1.54,1.55-.77l13.56,7.81c.1-2.14.32-4.28.65-6.41l-14.01-8.13c-.97-.58-1.74-1.92-1.74-2.88v-15.18c0-1.15.77-1.54,1.74-.96l18.87,10.94c12.93-28.21,42.48-35.13,44.85-35.65l-4.37-2.49-16.06-9.12c-1.26-.68-2.59-1.23-3.95-1.57-1.05-.24-2.13-.36-3.2-.36-2.2,0-4.41.5-6.43,1.5Z"></path>
    </g>
  </g>
</svg>
